<svg width="138.45mm" height="136.61mm" version="1.1" viewBox="0 0 138.45 136.61" xmlns="http://www.w3.org/2000/svg">
 <g transform="translate(-25.651 -25.924)">
  <path d="m41.618 146.72-15.967-15.815 0.11632-45.922c0.10894-43.012 0.14598-46.014 0.58438-47.377 1.4152-4.3999 4.5916-8.1496 8.6424-10.202 0.6763-0.34271 2.1663-0.76293 3.3112-0.93383 1.5074-0.22502 14.771-0.34346 48.084-0.42939l46.003-0.11867 31.713 31.66-0.0882 46.17-0.0882 46.17-0.57939 1.544c-0.97785 2.6058-2.1881 4.4541-4.2783 6.5339-2.4726 2.4601-4.5504 3.5563-7.5588 3.9877-1.4994 0.21499-15.503 0.33897-48.022 0.42515l-45.905 0.12166zm84.655-24.116c18.412-19.114 22.472-23.503 23.313-25.202 0.82849-1.6734 0.82849-4.6766 0-6.35-0.83886-1.6943-5.041-6.2392-23.179-25.069l-8.9837-9.3266h-45.078l-1.4178 1.5214c-0.77979 0.83674-4.2868 4.4979-7.7933 8.1359-17.206 17.851-22.776 23.924-23.138 25.226-0.34229 1.2324-0.34687 4.1271-8e-3 5.3452 0.36865 1.327 3.8424 5.133 20.364 22.312 4.8805 5.0747 9.5677 9.986 10.416 10.914l1.5424 1.6874h45.105l8.8566-9.1943zm-40.796-1.3059c-15.114-15.673-21.418-22.442-22.133-23.763-0.46689-0.86313-0.63465-4.6972-0.26363-6.0249 0.11269-0.40329 1.0172-1.6534 2.01-2.7781 5.243-5.9395 29.334-31.017 29.797-31.017 0.18352 0 3.5288 3.304 7.434 7.3422 3.9052 4.0382 8.6624 8.9495 10.572 10.914 8.6794 8.9307 12.689 13.416 13.57 15.181 0.79962 1.6011 0.80563 4.631 0.0121 6.1214-0.71851 1.3496-3.32 4.4409-7.1218 8.4627-4.2896 4.538-16.096 16.776-20.628 21.382l-3.8565 3.9196-9.3927-9.7405zm16.128-10.101c1.7374-0.17394 2.0338-0.28712 2.6978-1.0303 1.508-1.6878 1.1334-4.0901-0.81317-5.2152-0.86024-0.49722-1.4776-0.54213-8.6885-0.63191l-7.7625-0.0967-0.89243 0.86498c-0.49084 0.47574-1.0847 1.2702-1.3197 1.7654-0.54867 1.1562-0.22098 2.1932 1.1304 3.5771l0.97133 0.99474 6.3624-0.0164c3.4993-9e-3 7.2408-0.10429 8.3143-0.21176zm12.02-13.921c2.3702-1.1248 2.648-4.4426 0.49085-5.8635-1.0357-0.68226-9.1057-0.9544-24.385-0.82235-13.718 0.11856-13.548 0.09913-14.793 1.6829-1.0434 1.3264-0.58248 3.9227 0.86735 4.8861 0.8287 0.55071 7.0069 0.72131 23.085 0.63748 12.323-0.06425 13.89-0.11963 14.735-0.52065zm-10.121-13.784c1.9319-1.1125 2.3015-3.5223 0.79833-5.2047-0.66401-0.74316-0.96038-0.85634-2.6978-1.0303-1.0735-0.10747-4.8149-0.20276-8.3143-0.21176l-6.3624-0.01636-0.97133 0.99473c-1.8439 1.8884-1.8472 3.0799-0.0141 5.109l0.99765 1.1043 7.8264-0.11008c7.2056-0.10136 7.8987-0.15171 8.7376-0.63479z" fill="#002d41" stroke-width=".26458"/>
 </g>
</svg>
